<svg width="204" height="37" viewBox="0 0 204 37" fill="none" xmlns="http://www.w3.org/2000/svg">
<g clip-path="url(#clip0_4_22)">
<path d="M30.343 9.99001C31.7317 11.3591 32.8353 12.9899 33.59 14.7881C34.3447 16.5863 34.7354 18.5163 34.7397 20.4664C34.744 22.4166 34.3617 24.3482 33.6149 26.1497C32.8682 27.9512 31.7717 29.5868 30.389 30.962C28.678 32.668 26.6475 34.0199 24.4135 34.9405C22.1796 35.861 19.7862 36.3322 17.37 36.327C14.6853 36.333 12.0319 35.7509 9.59625 34.6215C7.16064 33.4922 5.00196 31.843 3.272 29.79C10.481 35.745 21.217 35.371 27.985 28.672C29.0679 27.6043 29.9278 26.3319 30.5148 24.9289C31.1017 23.526 31.404 22.0203 31.404 20.4995C31.404 18.9787 31.1017 17.4731 30.5148 16.0701C29.9278 14.6671 29.0679 13.3948 27.985 12.327C23.425 7.81301 16.032 7.81301 11.472 12.327C11.0076 12.7846 10.6389 13.3299 10.3872 13.9313C10.1355 14.5327 10.0059 15.1781 10.0059 15.83C10.0059 16.4819 10.1355 17.1273 10.3872 17.7287C10.6389 18.3301 11.0076 18.8754 11.472 19.333C12.415 20.2628 13.6862 20.7841 15.0105 20.7841C16.3348 20.7841 17.6059 20.2628 18.549 19.333C18.8633 19.0231 19.2871 18.8493 19.7285 18.8493C20.1699 18.8493 20.5936 19.0231 20.908 19.333C21.0625 19.4855 21.1851 19.6671 21.2688 19.8673C21.3525 20.0676 21.3956 20.2825 21.3956 20.4995C21.3956 20.7166 21.3525 20.9314 21.2688 21.1317C21.1851 21.3319 21.0625 21.5135 20.908 21.666C19.3363 23.2154 17.218 24.0839 15.011 24.0839C12.804 24.0839 10.6857 23.2154 9.114 21.666C8.34065 20.9033 7.72656 19.9946 7.30742 18.9925C6.88828 17.9905 6.67244 16.9152 6.67244 15.829C6.67244 14.7429 6.88828 13.6675 7.30742 12.6655C7.72656 11.6634 8.34065 10.7547 9.114 9.99201C14.975 4.18701 24.48 4.18701 30.343 9.99201V9.99001ZM17.37 1.35397e-05C20.0546 -0.00586416 22.708 0.576436 25.1434 1.70597C27.5789 2.8355 29.7373 4.48484 31.467 6.53801C24.257 0.583014 13.52 0.958013 6.756 7.65301V7.65501C5.67292 8.72279 4.81287 9.99519 4.22584 11.3983C3.63881 12.8013 3.33651 14.3071 3.33651 15.828C3.33651 17.3489 3.63881 18.8547 4.22584 20.2578C4.81287 21.6608 5.67292 22.9332 6.756 24.001C11.314 28.516 18.706 28.516 23.266 24.001C23.7302 23.5435 24.0988 22.9982 24.3504 22.3969C24.602 21.7956 24.7316 21.1503 24.7316 20.4985C24.7316 19.8467 24.602 19.2014 24.3504 18.6001C24.0988 17.9988 23.7302 17.4536 23.266 16.996C22.3229 16.0662 21.0518 15.545 19.7275 15.545C18.4032 15.545 17.132 16.0662 16.189 16.996C15.8747 17.3056 15.4512 17.4792 15.01 17.4792C14.5688 17.4792 14.1453 17.3056 13.831 16.996C13.6764 16.8435 13.5536 16.6618 13.4698 16.4615C13.386 16.2612 13.3428 16.0462 13.3428 15.829C13.3428 15.6119 13.386 15.3969 13.4698 15.1965C13.5536 14.9962 13.6764 14.8145 13.831 14.662C15.4027 13.1127 17.521 12.2441 19.728 12.2441C21.935 12.2441 24.0533 13.1127 25.625 14.662C26.3983 15.4247 27.0124 16.3334 27.4316 17.3355C27.8507 18.3375 28.0666 19.4129 28.0666 20.499C28.0666 21.5852 27.8507 22.6605 27.4316 23.6625C27.0124 24.6646 26.3983 25.5733 25.625 26.336C19.763 32.141 10.258 32.141 4.395 26.336C3.00452 24.9649 1.90002 23.3314 1.14554 21.5302C0.391065 19.729 0.00160765 17.796 -0.000252703 15.8432C-0.00211305 13.8904 0.383661 11.9566 1.13471 10.154C1.88575 8.35141 2.98713 6.7158 4.375 5.34201C7.82847 1.91094 12.5019 -0.0102108 17.37 1.35397e-05Z" fill="url(#paint0_radial_4_22)"/>
<path d="M46.6641 24.9616V16.8182H50.5973V31H46.821V28.424H46.6733C46.3532 29.255 45.8208 29.9228 45.076 30.4276C44.3374 30.9323 43.4356 31.1847 42.3707 31.1847C41.4228 31.1847 40.5888 30.9692 39.8686 30.5384C39.1484 30.1075 38.5852 29.495 38.179 28.701C37.7789 27.907 37.5758 26.956 37.5696 25.848V16.8182H41.5028V25.1463C41.509 25.9834 41.7337 26.6451 42.1768 27.1314C42.62 27.6177 43.214 27.8608 43.9588 27.8608C44.4328 27.8608 44.8759 27.7531 45.2884 27.5376C45.7008 27.3161 46.0331 26.9898 46.2855 26.5589C46.544 26.1281 46.6702 25.5956 46.6641 24.9616ZM57.7875 31.2678C56.8826 31.2678 56.0763 31.1108 55.3684 30.7969C54.6606 30.4768 54.1004 30.0059 53.688 29.3842C53.2818 28.7564 53.0787 27.9747 53.0787 27.0391C53.0787 26.2512 53.2233 25.5895 53.5126 25.054C53.8019 24.5185 54.1958 24.0876 54.6944 23.7614C55.193 23.4351 55.7593 23.1889 56.3933 23.0227C57.0334 22.8565 57.7044 22.7396 58.4061 22.6719C59.2309 22.5857 59.8957 22.5057 60.4004 22.4318C60.9051 22.3518 61.2714 22.2348 61.4991 22.081C61.7269 21.9271 61.8407 21.6993 61.8407 21.3977V21.3423C61.8407 20.7576 61.6561 20.3052 61.2868 19.9851C60.9236 19.665 60.4065 19.505 59.7356 19.505C59.0278 19.505 58.4645 19.6619 58.046 19.9759C57.6274 20.2836 57.3504 20.6714 57.215 21.1392L53.5772 20.8438C53.7619 19.982 54.1251 19.2372 54.6667 18.6094C55.2084 17.9754 55.907 17.4891 56.7626 17.1506C57.6243 16.8059 58.6215 16.6335 59.7541 16.6335C60.542 16.6335 61.296 16.7259 62.0162 16.9105C62.7425 17.0952 63.3857 17.3814 63.9458 17.7692C64.5121 18.157 64.9584 18.6555 65.2846 19.2649C65.6109 19.8681 65.774 20.5914 65.774 21.4347V31H62.0439V29.0334H61.9331C61.7053 29.4766 61.4006 29.8674 61.019 30.206C60.6374 30.5384 60.1788 30.8 59.6433 30.9908C59.1078 31.1754 58.4892 31.2678 57.7875 31.2678ZM58.9139 28.5533C59.4925 28.5533 60.0034 28.4394 60.4466 28.2116C60.8897 27.9777 61.2375 27.6638 61.4899 27.2699C61.7422 26.8759 61.8684 26.4297 61.8684 25.9311V24.4261C61.7453 24.5062 61.5761 24.58 61.3606 24.6477C61.1513 24.7093 60.9144 24.7678 60.6497 24.8232C60.385 24.8724 60.1203 24.9186 59.8556 24.9616C59.591 24.9986 59.3509 25.0324 59.1355 25.0632C58.6738 25.1309 58.2707 25.2386 57.926 25.3864C57.5813 25.5341 57.3135 25.7341 57.1227 25.9865C56.9319 26.2327 56.8365 26.5405 56.8365 26.9098C56.8365 27.4453 57.0304 27.8546 57.4181 28.1378C57.8121 28.4148 58.3107 28.5533 58.9139 28.5533ZM72.7587 22.8011V31H68.8255V16.8182H72.574V19.3203H72.7402C73.0542 18.4955 73.5804 17.843 74.3191 17.3629C75.0577 16.8767 75.9533 16.6335 77.0059 16.6335C77.9907 16.6335 78.8494 16.849 79.5819 17.2798C80.3143 17.7107 80.8837 18.3262 81.29 19.1264C81.6962 19.9205 81.8993 20.8684 81.8993 21.9702V31H77.9661V22.6719C77.9722 21.804 77.7507 21.1269 77.3013 20.6406C76.852 20.1482 76.2334 19.902 75.4455 19.902C74.9161 19.902 74.4483 20.0159 74.0421 20.2436C73.642 20.4714 73.3281 20.8037 73.1003 21.2408C72.8787 21.6716 72.7649 22.1918 72.7587 22.8011ZM91.3885 36.6136C90.1143 36.6136 89.0218 36.4382 88.1108 36.0874C87.206 35.7427 86.4858 35.2718 85.9503 34.6747C85.4148 34.0777 85.067 33.4067 84.907 32.6619L88.5447 32.1726C88.6555 32.4557 88.831 32.7204 89.071 32.9666C89.3111 33.2128 89.6281 33.4098 90.022 33.5575C90.4221 33.7114 90.9084 33.7884 91.4808 33.7884C92.3364 33.7884 93.0412 33.5791 93.5952 33.1605C94.1553 32.7481 94.4354 32.0556 94.4354 31.0831V28.4886H94.2692C94.0968 28.8826 93.8383 29.255 93.4936 29.6058C93.1489 29.9567 92.7057 30.2429 92.1641 30.4645C91.6224 30.6861 90.9761 30.7969 90.2251 30.7969C89.1603 30.7969 88.1908 30.5507 87.3168 30.0582C86.4489 29.5597 85.7564 28.7995 85.2393 27.7777C84.7285 26.7498 84.473 25.451 84.473 23.8814C84.473 22.2749 84.7346 20.933 85.2578 19.8558C85.781 18.7786 86.4766 17.9723 87.3445 17.4368C88.2185 16.9013 89.1757 16.6335 90.2159 16.6335C91.0099 16.6335 91.6747 16.7689 92.2102 17.0398C92.7457 17.3045 93.1766 17.6368 93.5028 18.0369C93.8352 18.4309 94.0907 18.8187 94.2692 19.2003H94.4169V16.8182H98.3224V31.1385C98.3224 32.3449 98.027 33.3544 97.4361 34.1669C96.8452 34.9794 96.0265 35.5888 94.9801 35.995C93.9399 36.4074 92.7427 36.6136 91.3885 36.6136ZM91.4716 27.8423C92.1056 27.8423 92.6411 27.6854 93.0781 27.3714C93.5213 27.0514 93.8598 26.5959 94.0938 26.005C94.3338 25.4079 94.4538 24.6939 94.4538 23.8629C94.4538 23.032 94.3369 22.3118 94.103 21.7024C93.8691 21.0869 93.5305 20.6098 93.0874 20.2713C92.6442 19.9328 92.1056 19.7635 91.4716 19.7635C90.8253 19.7635 90.2805 19.9389 89.8374 20.2898C89.3942 20.6345 89.0587 21.1146 88.831 21.7301C88.6032 22.3456 88.4893 23.0566 88.4893 23.8629C88.4893 24.6816 88.6032 25.3894 88.831 25.9865C89.0649 26.5774 89.4003 27.036 89.8374 27.3622C90.2805 27.6823 90.8253 27.8423 91.4716 27.8423ZM114.247 31H107.544V12.0909H114.302C116.204 12.0909 117.842 12.4695 119.214 13.2266C120.587 13.9775 121.643 15.0578 122.381 16.4673C123.126 17.8769 123.498 19.5634 123.498 21.527C123.498 23.4967 123.126 25.1894 122.381 26.6051C121.643 28.0208 120.581 29.1072 119.196 29.8643C117.817 30.6214 116.167 31 114.247 31ZM111.542 27.5746H114.081C115.263 27.5746 116.257 27.3653 117.063 26.9467C117.876 26.522 118.485 25.8665 118.891 24.9801C119.304 24.0876 119.51 22.9366 119.51 21.527C119.51 20.1297 119.304 18.9879 118.891 18.1016C118.485 17.2152 117.879 16.5627 117.072 16.1442C116.266 15.7256 115.272 15.5163 114.09 15.5163H111.542V27.5746ZM135.48 24.9616V16.8182H139.414V31H135.637V28.424H135.49C135.17 29.255 134.637 29.9228 133.892 30.4276C133.154 30.9323 132.252 31.1847 131.187 31.1847C130.239 31.1847 129.405 30.9692 128.685 30.5384C127.965 30.1075 127.402 29.495 126.995 28.701C126.595 27.907 126.392 26.956 126.386 25.848V16.8182H130.319V25.1463C130.325 25.9834 130.55 26.6451 130.993 27.1314C131.436 27.6177 132.03 27.8608 132.775 27.8608C133.249 27.8608 133.692 27.7531 134.105 27.5376C134.517 27.3161 134.85 26.9898 135.102 26.5589C135.36 26.1281 135.487 25.5956 135.48 24.9616ZM144.988 36.3182C144.49 36.3182 144.022 36.2782 143.585 36.1982C143.154 36.1243 142.797 36.0289 142.514 35.9119L143.4 32.9759C143.862 33.1174 144.277 33.1944 144.646 33.2067C145.022 33.219 145.345 33.1328 145.616 32.9482C145.893 32.7635 146.118 32.4496 146.29 32.0064L146.521 31.4062L141.433 16.8182H145.57L148.506 27.233H148.654L151.617 16.8182H155.781L150.269 32.5327C150.005 33.2959 149.645 33.9607 149.189 34.527C148.74 35.0994 148.17 35.5395 147.481 35.8473C146.792 36.1612 145.961 36.3182 144.988 36.3182Z" fill="#2C3E50"/>
</g>
<defs>
<radialGradient id="paint0_radial_4_22" cx="0" cy="0" r="1" gradientUnits="userSpaceOnUse" gradientTransform="translate(-267.833 106.035) rotate(32.7354) scale(3473.42 3568.34)">
<stop stop-color="#00D1FF"/>
<stop offset="1" stop-color="#00FFFF" stop-opacity="0.86"/>
</radialGradient>
<clipPath id="clip0_4_22">
<rect width="204" height="37" fill="white"/>
</clipPath>
</defs>
</svg>
