<svg width="204" height="37" viewBox="0 0 204 37" fill="none" xmlns="http://www.w3.org/2000/svg">
<g clip-path="url(#clip0_4_22)">
<path d="M30.343 9.99001C31.7317 11.3591 32.8353 12.9899 33.59 14.7881C34.3447 16.5863 34.7354 18.5163 34.7397 20.4664C34.744 22.4166 34.3617 24.3482 33.6149 26.1497C32.8682 27.9512 31.7717 29.5868 30.389 30.962C28.678 32.668 26.6475 34.0199 24.4135 34.9405C22.1796 35.861 19.7862 36.3322 17.37 36.327C14.6853 36.333 12.0319 35.7509 9.59625 34.6215C7.16064 33.4922 5.00196 31.843 3.272 29.79C10.481 35.745 21.217 35.371 27.985 28.672C29.0679 27.6043 29.9278 26.3319 30.5148 24.9289C31.1017 23.526 31.404 22.0203 31.404 20.4995C31.404 18.9787 31.1017 17.4731 30.5148 16.0701C29.9278 14.6671 29.0679 13.3948 27.985 12.327C23.425 7.81301 16.032 7.81301 11.472 12.327C11.0076 12.7846 10.6389 13.3299 10.3872 13.9313C10.1355 14.5327 10.0059 15.1781 10.0059 15.83C10.0059 16.4819 10.1355 17.1273 10.3872 17.7287C10.6389 18.3301 11.0076 18.8754 11.472 19.333C12.415 20.2628 13.6862 20.7841 15.0105 20.7841C16.3348 20.7841 17.6059 20.2628 18.549 19.333C18.8633 19.0231 19.2871 18.8493 19.7285 18.8493C20.1699 18.8493 20.5936 19.0231 20.908 19.333C21.0625 19.4855 21.1851 19.6671 21.2688 19.8673C21.3525 20.0676 21.3956 20.2825 21.3956 20.4995C21.3956 20.7166 21.3525 20.9314 21.2688 21.1317C21.1851 21.3319 21.0625 21.5135 20.908 21.666C19.3363 23.2154 17.218 24.0839 15.011 24.0839C12.804 24.0839 10.6857 23.2154 9.114 21.666C8.34065 20.9033 7.72656 19.9946 7.30742 18.9925C6.88828 17.9905 6.67244 16.9152 6.67244 15.829C6.67244 14.7429 6.88828 13.6675 7.30742 12.6655C7.72656 11.6634 8.34065 10.7547 9.114 9.99201C14.975 4.18701 24.48 4.18701 30.343 9.99201V9.99001ZM17.37 1.35397e-05C20.0546 -0.00586416 22.708 0.576436 25.1434 1.70597C27.5789 2.8355 29.7373 4.48484 31.467 6.53801C24.257 0.583014 13.52 0.958013 6.756 7.65301V7.65501C5.67292 8.72279 4.81287 9.99519 4.22584 11.3983C3.63881 12.8013 3.33651 14.3071 3.33651 15.828C3.33651 17.3489 3.63881 18.8547 4.22584 20.2578C4.81287 21.6608 5.67292 22.9332 6.756 24.001C11.314 28.516 18.706 28.516 23.266 24.001C23.7302 23.5435 24.0988 22.9982 24.3504 22.3969C24.602 21.7956 24.7316 21.1503 24.7316 20.4985C24.7316 19.8467 24.602 19.2014 24.3504 18.6001C24.0988 17.9988 23.7302 17.4536 23.266 16.996C22.3229 16.0662 21.0518 15.545 19.7275 15.545C18.4032 15.545 17.132 16.0662 16.189 16.996C15.8747 17.3056 15.4512 17.4792 15.01 17.4792C14.5688 17.4792 14.1453 17.3056 13.831 16.996C13.6764 16.8435 13.5536 16.6618 13.4698 16.4615C13.386 16.2612 13.3428 16.0462 13.3428 15.829C13.3428 15.6119 13.386 15.3969 13.4698 15.1965C13.5536 14.9962 13.6764 14.8145 13.831 14.662C15.4027 13.1127 17.521 12.2441 19.728 12.2441C21.935 12.2441 24.0533 13.1127 25.625 14.662C26.3983 15.4247 27.0124 16.3334 27.4316 17.3355C27.8507 18.3375 28.0666 19.4129 28.0666 20.499C28.0666 21.5852 27.8507 22.6605 27.4316 23.6625C27.0124 24.6646 26.3983 25.5733 25.625 26.336C19.763 32.141 10.258 32.141 4.395 26.336C3.00452 24.9649 1.90002 23.3314 1.14554 21.5302C0.391065 19.729 0.00160765 17.796 -0.000252703 15.8432C-0.00211305 13.8904 0.383661 11.9566 1.13471 10.154C1.88575 8.35141 2.98713 6.7158 4.375 5.34201C7.82847 1.91094 12.5019 -0.0102108 17.37 1.35397e-05Z" fill="url(#paint0_radial_4_22)"/>
<path d="M53.4297 22.4375H56.3047L57.75 24.2969L59.1719 25.9531L61.8516 29.3125H58.6953L56.8516 27.0469L55.9063 25.7031L53.4297 22.4375ZM62.0938 20C62.0938 21.7448 61.763 23.2292 61.1016 24.4531C60.4453 25.6771 59.5495 26.612 58.4141 27.2578C57.2839 27.8984 56.013 28.2187 54.6016 28.2187C53.1797 28.2187 51.9036 27.8958 50.7734 27.25C49.6432 26.6042 48.75 25.6693 48.0938 24.4453C47.4375 23.2214 47.1094 21.7396 47.1094 20C47.1094 18.2552 47.4375 16.7708 48.0938 15.5469C48.75 14.3229 49.6432 13.3906 50.7734 12.75C51.9036 12.1042 53.1797 11.7812 54.6016 11.7812C56.013 11.7812 57.2839 12.1042 58.4141 12.75C59.5495 13.3906 60.4453 14.3229 61.1016 15.5469C61.763 16.7708 62.0938 18.2552 62.0938 20ZM58.6641 20C58.6641 18.8698 58.4948 17.9167 58.1562 17.1406C57.8229 16.3646 57.3516 15.776 56.7422 15.375C56.1328 14.974 55.4193 14.7734 54.6016 14.7734C53.7839 14.7734 53.0703 14.974 52.4609 15.375C51.8516 15.776 51.3776 16.3646 51.0391 17.1406C50.7057 17.9167 50.5391 18.8698 50.5391 20C50.5391 21.1302 50.7057 22.0833 51.0391 22.8594C51.3776 23.6354 51.8516 24.224 52.4609 24.625C53.0703 25.026 53.7839 25.2266 54.6016 25.2266C55.4193 25.2266 56.1328 25.026 56.7422 24.625C57.3516 24.224 57.8229 23.6354 58.1562 22.8594C58.4948 22.0833 58.6641 21.1302 58.6641 20ZM72.2324 22.8906V16H75.5605V28H72.3652V25.8203H72.2402C71.9694 26.5234 71.5189 27.0885 70.8887 27.5156C70.2637 27.9427 69.5007 28.1563 68.5996 28.1563C67.7975 28.1563 67.0918 27.974 66.4824 27.6094C65.873 27.2448 65.3965 26.7266 65.0527 26.0547C64.7142 25.3828 64.5423 24.5781 64.5371 23.6406V16H67.8652V23.0469C67.8704 23.7552 68.0605 24.3151 68.4355 24.7266C68.8105 25.138 69.3132 25.3437 69.9434 25.3437C70.3444 25.3437 70.7194 25.2526 71.0684 25.0703C71.4173 24.8828 71.6986 24.6068 71.9121 24.2422C72.1309 23.8776 72.2376 23.4271 72.2324 22.8906ZM81.6445 28.2266C80.8789 28.2266 80.1966 28.0938 79.5977 27.8281C78.9987 27.5573 78.5247 27.1589 78.1758 26.6328C77.832 26.1016 77.6602 25.4401 77.6602 24.6484C77.6602 23.9818 77.7826 23.4219 78.0273 22.9687C78.2721 22.5156 78.6055 22.151 79.0273 21.875C79.4492 21.599 79.9284 21.3906 80.4648 21.25C81.0065 21.1094 81.5742 21.0104 82.168 20.9531C82.8659 20.8802 83.4284 20.8125 83.8555 20.75C84.2826 20.6823 84.5924 20.5833 84.7852 20.4531C84.9779 20.3229 85.0742 20.1302 85.0742 19.875V19.8281C85.0742 19.3333 84.918 18.9505 84.6055 18.6797C84.2982 18.4089 83.8607 18.2734 83.293 18.2734C82.694 18.2734 82.2174 18.4062 81.8633 18.6719C81.5091 18.9323 81.2747 19.2604 81.1602 19.6562L78.082 19.4062C78.2383 18.6771 78.5456 18.0469 79.0039 17.5156C79.4622 16.9792 80.0534 16.5677 80.7773 16.2812C81.5065 15.9896 82.3503 15.8438 83.3086 15.8438C83.9753 15.8438 84.6133 15.9219 85.2227 16.0781C85.8372 16.2344 86.3815 16.4766 86.8555 16.8047C87.3346 17.1328 87.7122 17.5547 87.9883 18.0703C88.2643 18.5807 88.4023 19.1927 88.4023 19.9062V28H85.2461V26.3359H85.1523C84.9596 26.7109 84.7018 27.0417 84.3789 27.3281C84.056 27.6094 83.668 27.8307 83.2148 27.9922C82.7617 28.1484 82.2383 28.2266 81.6445 28.2266ZM82.5977 25.9297C83.0872 25.9297 83.5195 25.8333 83.8945 25.6406C84.2695 25.4427 84.5638 25.1771 84.7773 24.8438C84.9909 24.5104 85.0977 24.1328 85.0977 23.7109V22.4375C84.9935 22.5052 84.8503 22.5677 84.668 22.625C84.4909 22.6771 84.2904 22.7266 84.0664 22.7734C83.8424 22.8151 83.6185 22.8542 83.3945 22.8906C83.1706 22.9219 82.9674 22.9505 82.7852 22.9766C82.3945 23.0339 82.0534 23.125 81.7617 23.25C81.4701 23.375 81.2435 23.5443 81.082 23.7578C80.9206 23.9661 80.8398 24.2266 80.8398 24.5391C80.8398 24.9922 81.0039 25.3385 81.332 25.5781C81.6654 25.8125 82.0872 25.9297 82.5977 25.9297ZM94.3125 21.0625V28H90.9844V16H94.1563V18.1172H94.2969C94.5625 17.4193 95.0078 16.8672 95.6328 16.4609C96.2578 16.0495 97.0156 15.8438 97.9062 15.8438C98.7396 15.8438 99.4661 16.026 100.086 16.3906C100.706 16.7552 101.188 17.276 101.531 17.9531C101.875 18.625 102.047 19.4271 102.047 20.3594V28H98.7188V20.9531C98.724 20.2187 98.5365 19.6458 98.1563 19.2344C97.776 18.8177 97.2526 18.6094 96.5859 18.6094C96.138 18.6094 95.7422 18.7057 95.3984 18.8984C95.0599 19.0911 94.7943 19.3724 94.6016 19.7422C94.4141 20.1068 94.3177 20.5469 94.3125 21.0625ZM110.076 32.75C108.998 32.75 108.074 32.6016 107.303 32.3047C106.537 32.013 105.928 31.6146 105.475 31.1094C105.021 30.6042 104.727 30.0365 104.592 29.4062L107.67 28.9922C107.764 29.2318 107.912 29.4557 108.115 29.6641C108.318 29.8724 108.587 30.0391 108.92 30.1641C109.258 30.2943 109.67 30.3594 110.154 30.3594C110.878 30.3594 111.475 30.1823 111.943 29.8281C112.417 29.4792 112.654 28.8932 112.654 28.0703V25.875H112.514C112.368 26.2083 112.149 26.5234 111.857 26.8203C111.566 27.1172 111.191 27.3594 110.732 27.5469C110.274 27.7344 109.727 27.8281 109.092 27.8281C108.191 27.8281 107.37 27.6198 106.631 27.2031C105.896 26.7812 105.311 26.138 104.873 25.2734C104.441 24.4036 104.225 23.3047 104.225 21.9766C104.225 20.6172 104.446 19.4818 104.889 18.5703C105.331 17.6589 105.92 16.9766 106.654 16.5234C107.394 16.0703 108.204 15.8438 109.084 15.8438C109.756 15.8438 110.318 15.9583 110.771 16.1875C111.225 16.4115 111.589 16.6927 111.865 17.0312C112.146 17.3646 112.363 17.6927 112.514 18.0156H112.639V16H115.943V28.1172C115.943 29.138 115.693 29.9922 115.193 30.6797C114.693 31.3672 114.001 31.8828 113.115 32.2266C112.235 32.5755 111.222 32.75 110.076 32.75ZM110.146 25.3281C110.683 25.3281 111.136 25.1953 111.506 24.9297C111.881 24.6589 112.167 24.2734 112.365 23.7734C112.568 23.2682 112.67 22.6641 112.67 21.9609C112.67 21.2578 112.571 20.6484 112.373 20.1328C112.175 19.612 111.889 19.2083 111.514 18.9219C111.139 18.6354 110.683 18.4922 110.146 18.4922C109.6 18.4922 109.139 18.6406 108.764 18.9375C108.389 19.2292 108.105 19.6354 107.912 20.1562C107.719 20.6771 107.623 21.2786 107.623 21.9609C107.623 22.6536 107.719 23.2526 107.912 23.7578C108.11 24.2578 108.394 24.6458 108.764 24.9219C109.139 25.1927 109.6 25.3281 110.146 25.3281ZM129.418 28H123.746V12H129.465C131.074 12 132.46 12.3203 133.621 12.9609C134.783 13.5964 135.676 14.5104 136.301 15.7031C136.931 16.8958 137.246 18.3229 137.246 19.9844C137.246 21.651 136.931 23.0833 136.301 24.2812C135.676 25.4792 134.777 26.3984 133.605 27.0391C132.439 27.6797 131.043 28 129.418 28ZM127.129 25.1016H129.277C130.277 25.1016 131.118 24.9245 131.801 24.5703C132.488 24.2109 133.004 23.6562 133.348 22.9062C133.697 22.151 133.871 21.1771 133.871 19.9844C133.871 18.8021 133.697 17.8359 133.348 17.0859C133.004 16.3359 132.491 15.7839 131.809 15.4297C131.126 15.0755 130.285 14.8984 129.285 14.8984H127.129V25.1016ZM147.385 22.8906V16H150.713V28H147.518V25.8203H147.393C147.122 26.5234 146.671 27.0885 146.041 27.5156C145.416 27.9427 144.653 28.1563 143.752 28.1563C142.95 28.1563 142.244 27.974 141.635 27.6094C141.025 27.2448 140.549 26.7266 140.205 26.0547C139.867 25.3828 139.695 24.5781 139.689 23.6406V16H143.018V23.0469C143.023 23.7552 143.213 24.3151 143.588 24.7266C143.963 25.138 144.465 25.3437 145.096 25.3437C145.497 25.3437 145.872 25.2526 146.221 25.0703C146.57 24.8828 146.851 24.6068 147.064 24.2422C147.283 23.8776 147.39 23.4271 147.385 22.8906ZM155.43 32.5C155.008 32.5 154.612 32.4661 154.242 32.3984C153.878 32.3359 153.576 32.2552 153.336 32.1562L154.086 29.6719C154.477 29.7917 154.828 29.8568 155.141 29.8672C155.458 29.8776 155.732 29.8047 155.961 29.6484C156.195 29.4922 156.385 29.2266 156.531 28.8516L156.727 28.3438L152.422 16H155.922L158.406 24.8125H158.531L161.039 16H164.563L159.898 29.2969C159.674 29.9427 159.37 30.5052 158.984 30.9844C158.604 31.4688 158.122 31.8411 157.539 32.1016C156.956 32.3672 156.253 32.5 155.43 32.5Z" fill="#2C3E50"/>
</g>
<defs>
<radialGradient id="paint0_radial_4_22" cx="0" cy="0" r="1" gradientUnits="userSpaceOnUse" gradientTransform="translate(-267.833 106.035) rotate(32.7354) scale(3473.42 3568.34)">
<stop stop-color="#00FFC4"/>
<stop offset="1" stop-color="#00E1FF"/>
</radialGradient>
<clipPath id="clip0_4_22">
<rect width="204" height="37" fill="white"/>
</clipPath>
</defs>
</svg>
