<svg width="370" height="189" viewBox="0 0 370 189" fill="none" xmlns="http://www.w3.org/2000/svg">
<rect width="370" height="189" fill="#F5F5F5"/>
<rect width="370" height="189" fill="white"/>
<g clip-path="url(#clip0_0_1)">
<path d="M102.343 85.99C103.732 87.3591 104.835 88.9899 105.59 90.7881C106.345 92.5863 106.735 94.5163 106.74 96.4664C106.744 98.4166 106.362 100.348 105.615 102.15C104.868 103.951 103.772 105.587 102.389 106.962C100.678 108.668 98.6475 110.02 96.4135 110.94C94.1796 111.861 91.7862 112.332 89.37 112.327C86.6853 112.333 84.0319 111.751 81.5963 110.622C79.1606 109.492 77.002 107.843 75.272 105.79C82.481 111.745 93.217 111.371 99.985 104.672C101.068 103.604 101.928 102.332 102.515 100.929C103.102 99.526 103.404 98.0203 103.404 96.4995C103.404 94.9787 103.102 93.4731 102.515 92.0701C101.928 90.6671 101.068 89.3948 99.985 88.327C95.425 83.813 88.032 83.813 83.472 88.327C83.0076 88.7846 82.6389 89.3299 82.3872 89.9313C82.1355 90.5327 82.0059 91.1781 82.0059 91.83C82.0059 92.4819 82.1355 93.1273 82.3872 93.7287C82.6389 94.3301 83.0076 94.8754 83.472 95.333C84.415 96.2628 85.6862 96.7841 87.0105 96.7841C88.3348 96.7841 89.6059 96.2628 90.549 95.333C90.8633 95.0231 91.2871 94.8493 91.7285 94.8493C92.1699 94.8493 92.5936 95.0231 92.908 95.333C93.0625 95.4855 93.1851 95.6671 93.2688 95.8673C93.3525 96.0676 93.3956 96.2825 93.3956 96.4995C93.3956 96.7166 93.3525 96.9314 93.2688 97.1317C93.1851 97.3319 93.0625 97.5135 92.908 97.666C91.3363 99.2154 89.218 100.084 87.011 100.084C84.804 100.084 82.6857 99.2154 81.114 97.666C80.3406 96.9033 79.7266 95.9946 79.3074 94.9925C78.8883 93.9905 78.6724 92.9152 78.6724 91.829C78.6724 90.7429 78.8883 89.6675 79.3074 88.6655C79.7266 87.6634 80.3406 86.7547 81.114 85.992C86.975 80.187 96.48 80.187 102.343 85.992V85.99ZM89.37 76C92.0546 75.9941 94.708 76.5764 97.1434 77.706C99.5789 78.8355 101.737 80.4848 103.467 82.538C96.257 76.583 85.52 76.958 78.756 83.653V83.655C77.6729 84.7228 76.8129 85.9952 76.2258 87.3983C75.6388 88.8013 75.3365 90.3071 75.3365 91.828C75.3365 93.3489 75.6388 94.8547 76.2258 96.2578C76.8129 97.6608 77.6729 98.9332 78.756 100.001C83.314 104.516 90.706 104.516 95.266 100.001C95.7302 99.5435 96.0988 98.9982 96.3504 98.3969C96.602 97.7956 96.7316 97.1503 96.7316 96.4985C96.7316 95.8467 96.602 95.2014 96.3504 94.6001C96.0988 93.9988 95.7302 93.4536 95.266 92.996C94.3229 92.0662 93.0518 91.545 91.7275 91.545C90.4032 91.545 89.132 92.0662 88.189 92.996C87.8747 93.3056 87.4512 93.4792 87.01 93.4792C86.5688 93.4792 86.1453 93.3056 85.831 92.996C85.6764 92.8435 85.5536 92.6618 85.4698 92.4615C85.386 92.2612 85.3428 92.0462 85.3428 91.829C85.3428 91.6119 85.386 91.3969 85.4698 91.1965C85.5536 90.9962 85.6764 90.8145 85.831 90.662C87.4027 89.1127 89.521 88.2441 91.728 88.2441C93.935 88.2441 96.0533 89.1127 97.625 90.662C98.3983 91.4247 99.0124 92.3334 99.4316 93.3355C99.8507 94.3375 100.067 95.4129 100.067 96.499C100.067 97.5852 99.8507 98.6605 99.4316 99.6625C99.0124 100.665 98.3983 101.573 97.625 102.336C91.763 108.141 82.258 108.141 76.395 102.336C75.0045 100.965 73.9 99.3314 73.1455 97.5302C72.3911 95.729 72.0016 93.796 71.9997 91.8432C71.9979 89.8904 72.3837 87.9566 73.1347 86.154C73.8858 84.3514 74.9871 82.7158 76.375 81.342C79.8285 77.9109 84.5019 75.9898 89.37 76Z" fill="url(#paint0_radial_0_1)"/>
<path d="M118.023 102.891V96H121.352V108H118.156V105.82H118.031C117.76 106.523 117.31 107.089 116.68 107.516C116.055 107.943 115.292 108.156 114.391 108.156C113.589 108.156 112.883 107.974 112.273 107.609C111.664 107.245 111.188 106.727 110.844 106.055C110.505 105.383 110.333 104.578 110.328 103.641V96H113.656V103.047C113.661 103.755 113.852 104.315 114.227 104.727C114.602 105.138 115.104 105.344 115.734 105.344C116.135 105.344 116.51 105.253 116.859 105.07C117.208 104.883 117.49 104.607 117.703 104.242C117.922 103.878 118.029 103.427 118.023 102.891ZM127.436 108.227C126.67 108.227 125.988 108.094 125.389 107.828C124.79 107.557 124.316 107.159 123.967 106.633C123.623 106.102 123.451 105.44 123.451 104.648C123.451 103.982 123.574 103.422 123.818 102.969C124.063 102.516 124.396 102.151 124.818 101.875C125.24 101.599 125.719 101.391 126.256 101.25C126.798 101.109 127.365 101.01 127.959 100.953C128.657 100.88 129.219 100.812 129.646 100.75C130.074 100.682 130.383 100.583 130.576 100.453C130.769 100.323 130.865 100.13 130.865 99.875V99.8281C130.865 99.3333 130.709 98.9505 130.396 98.6797C130.089 98.4089 129.652 98.2734 129.084 98.2734C128.485 98.2734 128.008 98.4062 127.654 98.6719C127.3 98.9323 127.066 99.2604 126.951 99.6562L123.873 99.4062C124.029 98.6771 124.337 98.0469 124.795 97.5156C125.253 96.9792 125.844 96.5677 126.568 96.2812C127.298 95.9896 128.141 95.8438 129.1 95.8438C129.766 95.8438 130.404 95.9219 131.014 96.0781C131.628 96.2344 132.173 96.4766 132.646 96.8047C133.126 97.1328 133.503 97.5547 133.779 98.0703C134.055 98.5807 134.193 99.1927 134.193 99.9062V108H131.037V106.336H130.943C130.751 106.711 130.493 107.042 130.17 107.328C129.847 107.609 129.459 107.831 129.006 107.992C128.553 108.148 128.029 108.227 127.436 108.227ZM128.389 105.93C128.878 105.93 129.311 105.833 129.686 105.641C130.061 105.443 130.355 105.177 130.568 104.844C130.782 104.51 130.889 104.133 130.889 103.711V102.438C130.785 102.505 130.641 102.568 130.459 102.625C130.282 102.677 130.081 102.727 129.857 102.773C129.633 102.815 129.41 102.854 129.186 102.891C128.962 102.922 128.758 102.951 128.576 102.977C128.186 103.034 127.844 103.125 127.553 103.25C127.261 103.375 127.035 103.544 126.873 103.758C126.712 103.966 126.631 104.227 126.631 104.539C126.631 104.992 126.795 105.339 127.123 105.578C127.456 105.812 127.878 105.93 128.389 105.93ZM140.104 101.063V108H136.775V96H139.947V98.1172H140.088C140.354 97.4193 140.799 96.8672 141.424 96.4609C142.049 96.0495 142.807 95.8438 143.697 95.8438C144.531 95.8438 145.257 96.026 145.877 96.3906C146.497 96.7552 146.979 97.276 147.322 97.9531C147.666 98.625 147.838 99.4271 147.838 100.359V108H144.51V100.953C144.515 100.219 144.327 99.6458 143.947 99.2344C143.567 98.8177 143.044 98.6094 142.377 98.6094C141.929 98.6094 141.533 98.7057 141.189 98.8984C140.851 99.0911 140.585 99.3724 140.393 99.7422C140.205 100.107 140.109 100.547 140.104 101.063ZM155.867 112.75C154.789 112.75 153.865 112.602 153.094 112.305C152.328 112.013 151.719 111.615 151.266 111.109C150.813 110.604 150.518 110.036 150.383 109.406L153.461 108.992C153.555 109.232 153.703 109.456 153.906 109.664C154.109 109.872 154.378 110.039 154.711 110.164C155.049 110.294 155.461 110.359 155.945 110.359C156.669 110.359 157.266 110.182 157.734 109.828C158.208 109.479 158.445 108.893 158.445 108.07V105.875H158.305C158.159 106.208 157.94 106.523 157.648 106.82C157.357 107.117 156.982 107.359 156.523 107.547C156.065 107.734 155.518 107.828 154.883 107.828C153.982 107.828 153.161 107.62 152.422 107.203C151.688 106.781 151.102 106.138 150.664 105.273C150.232 104.404 150.016 103.305 150.016 101.977C150.016 100.617 150.237 99.4818 150.68 98.5703C151.122 97.6589 151.711 96.9766 152.445 96.5234C153.185 96.0703 153.995 95.8438 154.875 95.8438C155.547 95.8438 156.109 95.9583 156.563 96.1875C157.016 96.4115 157.38 96.6927 157.656 97.0312C157.938 97.3646 158.154 97.6927 158.305 98.0156H158.43V96H161.734V108.117C161.734 109.138 161.484 109.992 160.984 110.68C160.484 111.367 159.792 111.883 158.906 112.227C158.026 112.576 157.013 112.75 155.867 112.75ZM155.938 105.328C156.474 105.328 156.927 105.195 157.297 104.93C157.672 104.659 157.958 104.273 158.156 103.773C158.359 103.268 158.461 102.664 158.461 101.961C158.461 101.258 158.362 100.648 158.164 100.133C157.966 99.612 157.68 99.2083 157.305 98.9219C156.93 98.6354 156.474 98.4922 155.938 98.4922C155.391 98.4922 154.93 98.6406 154.555 98.9375C154.18 99.2292 153.896 99.6354 153.703 100.156C153.51 100.677 153.414 101.279 153.414 101.961C153.414 102.654 153.51 103.253 153.703 103.758C153.901 104.258 154.185 104.646 154.555 104.922C154.93 105.193 155.391 105.328 155.938 105.328ZM175.209 108H169.537V92H175.256C176.865 92 178.251 92.3203 179.412 92.9609C180.574 93.5964 181.467 94.5104 182.092 95.7031C182.722 96.8958 183.037 98.3229 183.037 99.9844C183.037 101.651 182.722 103.083 182.092 104.281C181.467 105.479 180.568 106.398 179.396 107.039C178.23 107.68 176.834 108 175.209 108ZM172.92 105.102H175.068C176.068 105.102 176.91 104.924 177.592 104.57C178.279 104.211 178.795 103.656 179.139 102.906C179.488 102.151 179.662 101.177 179.662 99.9844C179.662 98.8021 179.488 97.8359 179.139 97.0859C178.795 96.3359 178.282 95.7839 177.6 95.4297C176.917 95.0755 176.076 94.8984 175.076 94.8984H172.92V105.102ZM193.176 102.891V96H196.504V108H193.309V105.82H193.184C192.913 106.523 192.462 107.089 191.832 107.516C191.207 107.943 190.444 108.156 189.543 108.156C188.741 108.156 188.035 107.974 187.426 107.609C186.816 107.245 186.34 106.727 185.996 106.055C185.658 105.383 185.486 104.578 185.48 103.641V96H188.809V103.047C188.814 103.755 189.004 104.315 189.379 104.727C189.754 105.138 190.257 105.344 190.887 105.344C191.288 105.344 191.663 105.253 192.012 105.07C192.361 104.883 192.642 104.607 192.855 104.242C193.074 103.878 193.181 103.427 193.176 102.891ZM201.221 112.5C200.799 112.5 200.403 112.466 200.033 112.398C199.669 112.336 199.367 112.255 199.127 112.156L199.877 109.672C200.268 109.792 200.619 109.857 200.932 109.867C201.249 109.878 201.523 109.805 201.752 109.648C201.986 109.492 202.176 109.227 202.322 108.852L202.518 108.344L198.213 96H201.713L204.197 104.812H204.322L206.83 96H210.354L205.689 109.297C205.465 109.943 205.161 110.505 204.775 110.984C204.395 111.469 203.913 111.841 203.33 112.102C202.747 112.367 202.044 112.5 201.221 112.5Z" fill="#2C3E50"/>
</g>
<defs>
<radialGradient id="paint0_radial_0_1" cx="0" cy="0" r="1" gradientUnits="userSpaceOnUse" gradientTransform="translate(-195.833 182.035) rotate(32.7354) scale(3473.42 3568.34)">
<stop stop-color="#00FFC4"/>
<stop offset="0.427083" stop-color="#00F2DD"/>
<stop offset="0.53125" stop-color="#00EFE3"/>
<stop offset="0.598958" stop-color="#00EDE7"/>
<stop offset="0.645833" stop-color="#00ECEA"/>
<stop offset="1" stop-color="#00E1FF"/>
</radialGradient>
<clipPath id="clip0_0_1">
<rect width="204" height="37" fill="white" transform="translate(72 76)"/>
</clipPath>
</defs>
</svg>
